<svg width="250" height="98" viewBox="0 0 250 98" fill="none" xmlns="http://www.w3.org/2000/svg">
<path d="M219.314 72.7417H249.379C248.615 77.6676 246.152 81.9565 241.99 85.6085C237.914 89.2604 231.926 92.1056 224.028 94.1439C216.214 96.0972 206.235 97.0739 194.09 97.0739C181.266 97.0739 170.183 96.0548 160.84 94.0165C151.583 91.9782 144.449 88.5385 139.438 83.6976C134.427 78.8566 131.922 72.317 131.922 64.0789C131.922 55.9257 134.342 49.4286 139.183 44.5876C144.109 39.6617 151.201 36.1372 160.458 34.0139C169.715 31.8907 180.926 30.8291 194.09 30.8291C206.999 30.8291 217.573 31.9756 225.811 34.2687C234.049 36.5618 240.122 40.2987 244.028 45.4794C247.935 50.5752 249.804 57.4969 249.634 66.2446H163.006C163.431 68.4528 164.62 70.4911 166.573 72.3595C168.611 74.2279 171.711 75.7567 175.873 76.9457C180.119 78.0498 185.767 78.6018 192.816 78.6018C200.12 78.6018 206.108 78.0922 210.779 77.0731C215.535 76.0539 218.38 74.6101 219.314 72.7417ZM192.816 49.3012C183.814 49.3012 176.934 50.2779 172.178 52.2313C167.507 54.1846 164.747 56.138 163.898 58.0914H219.951C219.357 55.8832 216.979 53.8874 212.817 52.1039C208.655 50.2354 201.989 49.3012 192.816 49.3012Z" fill="black"/>
<path d="M49.4288 95.1629L0 13.6309H35.9251L78.0924 91.9781H65.0983L107.266 13.6309H142.681L93.7619 95.1629H49.4288Z" fill="black"/>
<path d="M249.52 19.1091V0H150.285V19.1091H249.52Z" fill="#0BA7E0"/>
</svg>
