<svg width="1100" height="98" viewBox="0 0 1100 98" fill="none" xmlns="http://www.w3.org/2000/svg">
<path d="M1005.89 96.9468C998.25 96.9468 991.371 96.1824 985.256 94.6537C979.141 93.04 973.918 90.7894 969.587 87.9018C965.255 84.9293 961.943 81.4472 959.65 77.4555C957.357 73.3789 956.21 68.8777 956.21 63.9518C956.21 59.0259 957.357 54.5246 959.65 50.448C961.943 46.3714 965.255 42.8893 969.587 40.0017C973.918 37.0292 979.141 34.7786 985.256 33.2498C991.371 31.6362 998.25 30.8293 1005.89 30.8293C1015.07 30.8293 1023.22 32.0608 1030.35 34.5238C1037.57 36.9867 1043.22 40.6811 1047.3 45.607C1051.37 50.5329 1053.41 56.6478 1053.41 63.9518C1053.41 70.916 1051.37 76.861 1047.3 81.7869C1043.22 86.7128 1037.57 90.4921 1030.35 93.125C1023.22 95.6728 1015.07 96.9468 1005.89 96.9468ZM994.428 77.5829C1000.2 77.5829 1005.13 77.0733 1009.21 76.0542C1013.28 75.035 1016.38 73.5063 1018.51 71.468C1020.63 69.4297 1021.69 66.9243 1021.69 63.9518C1021.69 59.3656 1019.31 55.9684 1014.56 53.7602C1009.8 51.4672 1003.09 50.3206 994.428 50.3206C987.974 50.3206 982.029 50.7028 976.593 51.4672C971.243 52.2315 966.911 53.5904 963.599 55.5438C960.372 57.4971 958.758 60.2998 958.758 63.9518C958.758 67.5188 960.372 70.279 963.599 72.2323C966.911 74.1857 971.243 75.5871 976.593 76.4364C982.029 77.2007 987.974 77.5829 994.428 77.5829ZM958.758 7.26147V70.9584C958.758 76.3939 958.546 81.3198 958.121 85.7361C957.781 90.0675 957.399 93.2099 956.975 95.1633H928.184V7.26147H958.758Z" fill="black"/>
<path d="M840.828 96.9468C831.656 96.9468 823.503 95.6728 816.369 93.125C809.235 90.4921 803.587 86.7128 799.425 81.7869C795.349 76.861 793.311 70.916 793.311 63.9518C793.311 56.6478 795.349 50.5329 799.425 45.607C803.587 40.6811 809.235 36.9867 816.369 34.5238C823.503 32.0608 831.656 30.8293 840.828 30.8293C851.02 30.8293 859.81 32.2307 867.199 35.0333C874.673 37.7511 880.405 41.6154 884.397 46.6262C888.474 51.5521 890.512 57.3273 890.512 63.9518C890.512 68.8777 889.366 73.3789 887.072 77.4555C884.779 81.4472 881.467 84.9293 877.136 87.9018C872.804 90.7894 867.581 93.04 861.466 94.6537C855.351 96.1824 848.472 96.9468 840.828 96.9468ZM852.294 77.5829C858.749 77.5829 864.651 77.2007 870.002 76.4364C875.437 75.5871 879.768 74.1857 882.996 72.2323C886.308 70.279 887.964 67.5188 887.964 63.9518C887.964 60.2998 886.308 57.4971 882.996 55.5438C879.768 53.5904 875.437 52.2315 870.002 51.4672C864.651 50.7028 858.749 50.3206 852.294 50.3206C843.631 50.3206 836.922 51.4672 832.166 53.7602C827.41 55.9684 825.032 59.3656 825.032 63.9518C825.032 66.9243 826.093 69.4297 828.216 71.468C830.34 73.5063 833.44 75.035 837.516 76.0542C841.593 77.0733 846.519 77.5829 852.294 77.5829ZM887.964 32.7403H918.539V95.1633H889.748C889.748 95.1633 889.578 94.1866 889.238 92.2332C888.983 90.2798 888.686 87.4772 888.346 83.8252C888.092 80.1732 887.964 75.8843 887.964 70.9584V32.7403Z" fill="black"/>
<path d="M717.023 13.6311V70.9584H791.294V95.1632H685.175V13.6311H717.023Z" fill="black"/>
<path d="M646.557 72.7419H676.622C675.858 77.6678 673.395 81.9567 669.233 85.6087C665.157 89.2607 659.169 92.1058 651.271 94.1441C643.457 96.0975 633.478 97.0742 621.333 97.0742C608.509 97.0742 597.426 96.055 588.083 94.0167C578.826 91.9784 571.692 88.5388 566.681 83.6978C561.67 78.8568 559.165 72.3173 559.165 64.0791C559.165 55.9259 561.585 49.4288 566.426 44.5879C571.352 39.662 578.444 36.1374 587.701 34.0142C596.959 31.891 608.169 30.8293 621.333 30.8293C634.242 30.8293 644.816 31.9759 653.054 34.269C661.292 36.5621 667.365 40.299 671.272 45.4796C675.178 50.5754 677.047 57.4971 676.877 66.2448H590.249C590.674 68.453 591.863 70.4913 593.816 72.3597C595.854 74.2282 598.954 75.7569 603.116 76.9459C607.362 78.05 613.01 78.602 620.059 78.602C627.363 78.602 633.351 78.0925 638.022 77.0733C642.778 76.0542 645.623 74.6104 646.557 72.7419ZM620.059 49.3015C611.057 49.3015 604.178 50.2781 599.422 52.2315C594.75 54.1849 591.99 56.1383 591.141 58.0916H647.194C646.6 55.8835 644.222 53.8876 640.06 52.1041C635.899 50.2357 629.232 49.3015 620.059 49.3015Z" fill="black"/>
<path d="M555.324 68.0284C555.324 74.1433 553.413 79.3664 549.592 83.6978C545.77 88.0292 539.74 91.3414 531.502 93.6345C523.263 95.9276 512.562 97.0742 499.398 97.0742C486.234 97.0742 475.024 96.0125 465.766 93.8893C456.594 91.7661 449.587 88.284 444.746 83.443C439.99 78.602 437.612 72.1474 437.612 64.0791C437.612 56.0109 439.99 49.5562 444.746 44.7153C449.587 39.7894 456.594 36.2648 465.766 34.1416C475.024 31.9334 486.234 30.8293 499.398 30.8293C512.562 30.8293 523.221 31.9759 531.374 34.269C539.527 36.5621 545.515 39.8743 549.337 44.2057C553.159 48.5371 555.112 53.7178 555.197 59.7478H527.17C525.811 56.4355 522.754 53.8876 517.998 52.1041C513.242 50.2357 507.042 49.3015 499.398 49.3015C493.199 49.3015 487.806 49.7686 483.219 50.7028C478.633 51.5521 475.066 53.0383 472.518 55.1616C470.055 57.2848 468.824 60.2573 468.824 64.0791C468.824 67.816 470.055 70.7461 472.518 72.8693C474.981 74.9926 478.506 76.4788 483.092 77.3281C487.678 78.1774 493.114 78.602 499.398 78.602C507.042 78.602 513.242 77.7103 517.998 75.9268C522.839 74.0583 525.939 71.4255 527.298 68.0284H555.324Z" fill="black"/>
<path d="M431.211 0V19.1091H398.853V0H431.211ZM399.744 32.7402H430.319V95.1632H399.744V32.7402Z" fill="black"/>
<path d="M319.495 32.7402H394.403V51.8493H319.495V32.7402ZM341.662 13.6311H372.236V95.1632H341.662V13.6311Z" fill="black"/>
<path d="M254.748 32.7403H285.323V95.1633H254.748V32.7403ZM318.19 56.3081C312.67 56.3081 307.617 56.8177 303.03 57.8368C298.444 58.856 294.537 60.0875 291.31 61.5313C288.083 62.8901 285.662 64.249 284.049 65.6079L283.794 59.493C284.049 57.7095 284.728 55.6287 285.832 53.2507C286.936 50.7877 288.422 48.2823 290.291 45.7344C292.159 43.1016 294.452 40.6811 297.17 38.473C299.888 36.1799 302.988 34.3539 306.47 32.995C310.037 31.5512 313.944 30.8293 318.19 30.8293V56.3081Z" fill="black"/>
<path d="M219.315 72.7419H249.38C248.616 77.6678 246.153 81.9568 241.991 85.6087C237.915 89.2607 231.927 92.1058 224.029 94.1441C216.215 96.0975 206.236 97.0742 194.091 97.0742C181.267 97.0742 170.183 96.055 160.841 94.0167C151.584 91.9784 144.45 88.5388 139.439 83.6978C134.428 78.8568 131.923 72.3173 131.923 64.0791C131.923 55.9259 134.343 49.4288 139.184 44.5879C144.11 39.662 151.202 36.1374 160.459 34.0142C169.716 31.891 180.927 30.8293 194.091 30.8293C207 30.8293 217.574 31.9759 225.812 34.269C234.05 36.5621 240.123 40.299 244.029 45.4796C247.936 50.5754 249.805 57.4971 249.635 66.2448H163.007C163.432 68.453 164.621 70.4913 166.574 72.3597C168.612 74.2282 171.712 75.7569 175.874 76.9459C180.12 78.05 185.768 78.6021 192.817 78.6021C200.121 78.6021 206.109 78.0925 210.78 77.0733C215.536 76.0542 218.381 74.6104 219.315 72.7419ZM192.817 49.3015C183.815 49.3015 176.935 50.2781 172.179 52.2315C167.508 54.1849 164.748 56.1383 163.899 58.0916H219.952C219.358 55.8835 216.979 53.8876 212.818 52.1041C208.656 50.2357 201.989 49.3015 192.817 49.3015Z" fill="black"/>
<path d="M49.4288 95.1632L0 13.6311H35.9251L78.0924 91.9783H65.0983L107.266 13.6311H142.681L93.7619 95.1632H49.4288Z" fill="black"/>
<path d="M1099.57 96.9466V77.8375H1067.21V96.9466H1099.57Z" fill="#0BA7E0"/>
<path d="M249.645 19.1091V0H150.285V19.1091H249.645Z" fill="#0BA7E0"/>
</svg>
