<svg width="1100" height="98" viewBox="0 0 1100 98" fill="none" xmlns="http://www.w3.org/2000/svg">
<path d="M1005.89 97.5837C998.25 97.5837 991.371 96.8194 985.256 95.2906C979.141 93.677 973.918 91.4264 969.587 88.5388C965.255 85.5662 961.943 82.0841 959.65 78.0925C957.357 74.0159 956.21 69.5146 956.21 64.5887C956.21 59.6628 957.357 55.1616 959.65 51.085C961.943 47.0084 965.255 43.5263 969.587 40.6387C973.918 37.6661 979.141 35.4155 985.256 33.8868C991.371 32.2731 998.25 31.4663 1005.89 31.4663C1015.07 31.4663 1023.22 32.6978 1030.35 35.1607C1037.57 37.6237 1043.22 41.3181 1047.3 46.244C1051.37 51.1699 1053.41 57.2848 1053.41 64.5887C1053.41 71.5529 1051.37 77.498 1047.3 82.4239C1043.22 87.3498 1037.57 91.1291 1030.35 93.7619C1023.22 96.3098 1015.07 97.5837 1005.89 97.5837ZM994.428 78.2199C1000.2 78.2199 1005.13 77.7103 1009.21 76.6911C1013.28 75.672 1016.38 74.1433 1018.51 72.1049C1020.63 70.0666 1021.69 67.5612 1021.69 64.5887C1021.69 60.0025 1019.31 56.6054 1014.56 54.3972C1009.8 52.1041 1003.09 50.9576 994.428 50.9576C987.974 50.9576 982.029 51.3398 976.593 52.1041C971.243 52.8685 966.911 54.2273 963.599 56.1807C960.372 58.1341 958.758 60.9368 958.758 64.5887C958.758 68.1557 960.372 70.9159 963.599 72.8693C966.911 74.8227 971.243 76.224 976.593 77.0733C982.029 77.8377 987.974 78.2199 994.428 78.2199ZM958.758 7.89844V71.5954C958.758 77.0309 958.546 81.9567 958.121 86.3731C957.781 90.7045 957.399 93.8468 956.975 95.8002H928.184V7.89844H958.758Z" fill="white"/>
<path d="M840.828 97.5837C831.656 97.5837 823.503 96.3098 816.369 93.7619C809.235 91.1291 803.587 87.3498 799.425 82.4239C795.349 77.498 793.311 71.5529 793.311 64.5887C793.311 57.2848 795.349 51.1699 799.425 46.244C803.587 41.3181 809.235 37.6237 816.369 35.1607C823.503 32.6978 831.656 31.4663 840.828 31.4663C851.02 31.4663 859.81 32.8676 867.199 35.6703C874.673 38.388 880.405 42.2523 884.397 47.2631C888.474 52.189 890.512 57.9642 890.512 64.5887C890.512 69.5146 889.366 74.0159 887.072 78.0925C884.779 82.0841 881.467 85.5662 877.136 88.5388C872.804 91.4264 867.581 93.677 861.466 95.2906C855.351 96.8194 848.472 97.5837 840.828 97.5837ZM852.294 78.2199C858.749 78.2199 864.651 77.8377 870.002 77.0733C875.437 76.224 879.768 74.8227 882.996 72.8693C886.308 70.9159 887.964 68.1557 887.964 64.5887C887.964 60.9368 886.308 58.1341 882.996 56.1807C879.768 54.2273 875.437 52.8685 870.002 52.1041C864.651 51.3398 858.749 50.9576 852.294 50.9576C843.631 50.9576 836.922 52.1041 832.166 54.3972C827.41 56.6054 825.032 60.0025 825.032 64.5887C825.032 67.5612 826.093 70.0667 828.216 72.105C830.34 74.1433 833.44 75.672 837.516 76.6911C841.593 77.7103 846.519 78.2199 852.294 78.2199ZM887.964 33.3772H918.539V95.8002H889.748C889.748 95.8002 889.578 94.8235 889.238 92.8702C888.983 90.9168 888.686 88.1141 888.346 84.4622C888.092 80.8102 887.964 76.5213 887.964 71.5954V33.3772Z" fill="white"/>
<path d="M717.023 14.2681V71.5953H791.294V95.8001H685.175V14.2681H717.023Z" fill="white"/>
<path d="M646.557 73.3789H676.622C675.858 78.3048 673.395 82.5937 669.233 86.2457C665.157 89.8976 659.169 92.7428 651.271 94.7811C643.457 96.7344 633.478 97.7111 621.333 97.7111C608.509 97.7111 597.426 96.692 588.083 94.6537C578.826 92.6154 571.692 89.1757 566.681 84.3348C561.67 79.4938 559.165 72.9542 559.165 64.7161C559.165 56.5629 561.585 50.0658 566.426 45.2248C571.352 40.2989 578.444 36.7744 587.701 34.6512C596.959 32.5279 608.169 31.4663 621.333 31.4663C634.242 31.4663 644.816 32.6129 653.054 34.9059C661.292 37.199 667.365 40.9359 671.272 46.1166C675.178 51.2124 677.047 58.1341 676.877 66.8818H590.249C590.674 69.09 591.863 71.1283 593.816 72.9967C595.854 74.8652 598.954 76.3939 603.116 77.5829C607.362 78.687 613.01 79.239 620.059 79.239C627.363 79.239 633.351 78.7294 638.022 77.7103C642.778 76.6911 645.623 75.2473 646.557 73.3789ZM620.059 49.9384C611.057 49.9384 604.178 50.9151 599.422 52.8685C594.75 54.8219 591.99 56.7752 591.141 58.7286H647.194C646.6 56.5204 644.222 54.5246 640.06 52.7411C635.899 50.8726 629.232 49.9384 620.059 49.9384Z" fill="white"/>
<path d="M555.324 68.6653C555.324 74.7802 553.413 80.0034 549.592 84.3348C545.77 88.6662 539.74 91.9784 531.502 94.2715C523.263 96.5646 512.562 97.7111 499.398 97.7111C486.234 97.7111 475.024 96.6495 465.766 94.5263C456.594 92.403 449.587 88.9209 444.746 84.08C439.99 79.239 437.612 72.7844 437.612 64.7161C437.612 56.6478 439.99 50.1932 444.746 45.3522C449.587 40.4263 456.594 36.9018 465.766 34.7785C475.024 32.5704 486.234 31.4663 499.398 31.4663C512.562 31.4663 523.221 32.6129 531.374 34.9059C539.527 37.199 545.515 40.5113 549.337 44.8427C553.159 49.1741 555.112 54.3547 555.197 60.3847H527.17C525.811 57.0725 522.754 54.5246 517.998 52.7411C513.242 50.8726 507.042 49.9384 499.398 49.9384C493.199 49.9384 487.806 50.4055 483.219 51.3398C478.633 52.189 475.066 53.6753 472.518 55.7985C470.055 57.9218 468.824 60.8943 468.824 64.7161C468.824 68.453 470.055 71.3831 472.518 73.5063C474.981 75.6295 478.506 77.1158 483.092 77.9651C487.678 78.8144 493.114 79.239 499.398 79.239C507.042 79.239 513.242 78.3473 517.998 76.5637C522.839 74.6953 525.939 72.0625 527.298 68.6653H555.324Z" fill="white"/>
<path d="M431.211 0.636963V19.746H398.853V0.636963H431.211ZM399.744 33.3772H430.319V95.8002H399.744V33.3772Z" fill="white"/>
<path d="M319.495 33.3772H394.403V52.4862H319.495V33.3772ZM341.662 14.2681H372.236V95.8001H341.662V14.2681Z" fill="white"/>
<path d="M254.748 33.3772H285.323V95.8002H254.748V33.3772ZM318.19 56.9451C312.67 56.9451 307.617 57.4547 303.03 58.4738C298.444 59.493 294.537 60.7244 291.31 62.1682C288.083 63.5271 285.662 64.886 284.049 66.2448L283.794 60.1299C284.049 58.3464 284.728 56.2656 285.832 53.8876C286.936 51.4247 288.422 48.9193 290.291 46.3714C292.159 43.7386 294.452 41.3181 297.17 39.1099C299.888 36.8168 302.988 34.9909 306.47 33.632C310.037 32.1882 313.944 31.4663 318.19 31.4663V56.9451Z" fill="white"/>
<path d="M219.315 73.3789H249.38C248.616 78.3048 246.153 82.5937 241.991 86.2457C237.915 89.8976 231.927 92.7428 224.029 94.7811C216.215 96.7344 206.236 97.7111 194.091 97.7111C181.267 97.7111 170.183 96.692 160.841 94.6537C151.584 92.6154 144.45 89.1757 139.439 84.3348C134.428 79.4938 131.923 72.9542 131.923 64.7161C131.923 56.5629 134.343 50.0658 139.184 45.2248C144.11 40.2989 151.202 36.7744 160.459 34.6512C169.716 32.5279 180.927 31.4663 194.091 31.4663C207 31.4663 217.574 32.6129 225.812 34.9059C234.05 37.199 240.123 40.9359 244.029 46.1166C247.936 51.2124 249.805 58.1341 249.635 66.8818H163.007C163.432 69.09 164.621 71.1283 166.574 72.9967C168.612 74.8652 171.712 76.3939 175.874 77.5829C180.12 78.687 185.768 79.239 192.817 79.239C200.121 79.239 206.109 78.7294 210.78 77.7103C215.536 76.6911 218.381 75.2473 219.315 73.3789ZM192.817 49.9384C183.815 49.9384 176.935 50.9151 172.179 52.8685C167.508 54.8219 164.748 56.7752 163.899 58.7286H219.952C219.358 56.5204 216.979 54.5246 212.818 52.7411C208.656 50.8726 201.989 49.9384 192.817 49.9384Z" fill="white"/>
<path d="M49.4288 95.8001L0 14.2681H35.9251L78.0924 92.6153H65.0983L107.266 14.2681H142.681L93.7619 95.8001H49.4288Z" fill="white"/>
<path d="M1099.57 97.5836V78.4745H1067.21V97.5836H1099.57Z" fill="#DDFD52"/>
<path d="M201.098 0L175.364 19.1091H206.066L241.864 0H201.098Z" fill="#DDFD52"/>
</svg>
