<svg width="360" height="98" viewBox="0 0 360 98" fill="none" xmlns="http://www.w3.org/2000/svg">
<path d="M219.315 73.3789H249.38C248.615 78.3048 246.152 82.5937 241.991 86.2457C237.914 89.8976 231.927 92.7428 224.028 94.7811C216.215 96.7344 206.235 97.7111 194.091 97.7111C181.266 97.7111 170.183 96.692 160.841 94.6537C151.583 92.6154 144.449 89.1757 139.439 84.3348C134.428 79.4938 131.922 72.9542 131.922 64.7161C131.922 56.5629 134.343 50.0658 139.184 45.2248C144.11 40.2989 151.201 36.7744 160.459 34.6512C169.716 32.5279 180.927 31.4663 194.091 31.4663C207 31.4663 217.574 32.6129 225.812 34.9059C234.05 37.199 240.122 40.9359 244.029 46.1166C247.936 51.2124 249.804 58.1341 249.634 66.8818H163.006C163.431 69.09 164.62 71.1283 166.574 72.9967C168.612 74.8652 171.712 76.3939 175.873 77.5829C180.12 78.687 185.768 79.239 192.817 79.239C200.121 79.239 206.108 78.7294 210.779 77.7103C215.535 76.6911 218.38 75.2473 219.315 73.3789ZM192.817 49.9384C183.814 49.9384 176.935 50.9151 172.179 52.8685C167.508 54.8219 164.748 56.7752 163.898 58.7286H219.952C219.357 56.5204 216.979 54.5246 212.817 52.7411C208.656 50.8726 201.989 49.9384 192.817 49.9384Z" fill="black"/>
<path d="M49.4288 95.8001L0 14.2681H35.9251L78.0924 92.6153H65.0983L107.266 14.2681H142.681L93.7619 95.8001H49.4288Z" fill="black"/>
<path d="M359.316 97.7111V78.6021H265.407V97.7111H359.316Z" fill="#950BE0"/>
<path d="M201.097 0L175.363 19.1091H206.065L241.863 0H201.097Z" fill="#950BE0"/>
</svg>
