<svg width="360" height="98" viewBox="0 0 360 98" fill="none" xmlns="http://www.w3.org/2000/svg">
<path d="M219.314 73.3789H249.379C248.615 78.3048 246.152 82.5937 241.99 86.2457C237.914 89.8976 231.926 92.7428 224.028 94.7811C216.214 96.7344 206.235 97.7111 194.09 97.7111C181.266 97.7111 170.183 96.692 160.84 94.6537C151.583 92.6154 144.449 89.1757 139.438 84.3348C134.427 79.4938 131.922 72.9542 131.922 64.7161C131.922 56.5629 134.342 50.0658 139.183 45.2248C144.109 40.2989 151.201 36.7744 160.458 34.6512C169.715 32.5279 180.926 31.4663 194.09 31.4663C206.999 31.4663 217.573 32.6129 225.811 34.9059C234.049 37.199 240.122 40.9359 244.028 46.1166C247.935 51.2124 249.804 58.1341 249.634 66.8818H163.006C163.431 69.09 164.62 71.1283 166.573 72.9967C168.611 74.8652 171.711 76.3939 175.873 77.5829C180.119 78.687 185.767 79.239 192.816 79.239C200.12 79.239 206.108 78.7294 210.779 77.7103C215.535 76.6911 218.38 75.2473 219.314 73.3789ZM192.816 49.9384C183.814 49.9384 176.934 50.9151 172.178 52.8685C167.507 54.8219 164.747 56.7752 163.898 58.7286H219.951C219.357 56.5204 216.979 54.5246 212.817 52.7411C208.655 50.8726 201.989 49.9384 192.816 49.9384Z" fill="white"/>
<path d="M49.4288 95.8001L0 14.2681H35.9251L78.0924 92.6153H65.0983L107.266 14.2681H142.681L93.7619 95.8001H49.4288Z" fill="white"/>
<path d="M359.316 97.7111V78.6021H265.407V97.7111H359.316Z" fill="#DDFD52"/>
<path d="M201.097 0L175.363 19.1091H206.065L241.863 0H201.097Z" fill="#DDFD52"/>
</svg>
